<?xml version="1.0" encoding="UTF-8"?>
<!DOCTYPE svg PUBLIC "-//W3C//DTD SVG 1.1//EN" "http://www.w3.org/Graphics/SVG/1.1/DTD/svg11.dtd">
<svg version="1.2" width="400.26mm" height="400.26mm" viewBox="0 0 40026 40026" preserveAspectRatio="xMidYMid" fill-rule="evenodd" stroke-width="28.222" stroke-linejoin="round" xmlns="http://www.w3.org/2000/svg" xmlns:ooo="http://xml.openoffice.org/svg/export" xmlns:xlink="http://www.w3.org/1999/xlink" xmlns:presentation="http://sun.com/xmlns/staroffice/presentation" xmlns:smil="http://www.w3.org/2001/SMIL20/" xmlns:anim="urn:oasis:names:tc:opendocument:xmlns:animation:1.0" xml:space="preserve">
 <defs class="ClipPathGroup">
  <clipPath id="presentation_clip_path" clipPathUnits="userSpaceOnUse">
   <rect x="0" y="0" width="40026" height="40026"/>
  </clipPath>
  <clipPath id="presentation_clip_path_shrink" clipPathUnits="userSpaceOnUse">
   <rect x="40" y="40" width="39946" height="39946"/>
  </clipPath>
 </defs>
 <defs class="TextShapeIndex">
  <g ooo:slide="id1" ooo:id-list="id3 id4 id5 id6 id7 id8 id9 id10 id11 id12 id13 id14 id15 id16 id17 id18 id19 id20 id21 id22 id23 id24 id25 id26 id27 id28 id29 id30 id31"/>
 </defs>
 <defs class="EmbeddedBulletChars">
  <g id="bullet-char-template-57356" transform="scale(0.00048828125,-0.00048828125)">
   <path d="M 580,1141 L 1163,571 580,0 -4,571 580,1141 Z"/>
  </g>
  <g id="bullet-char-template-57354" transform="scale(0.00048828125,-0.00048828125)">
   <path d="M 8,1128 L 1137,1128 1137,0 8,0 8,1128 Z"/>
  </g>
  <g id="bullet-char-template-10146" transform="scale(0.00048828125,-0.00048828125)">
   <path d="M 174,0 L 602,739 174,1481 1456,739 174,0 Z M 1358,739 L 309,1346 659,739 1358,739 Z"/>
  </g>
  <g id="bullet-char-template-10132" transform="scale(0.00048828125,-0.00048828125)">
   <path d="M 2015,739 L 1276,0 717,0 1260,543 174,543 174,936 1260,936 717,1481 1274,1481 2015,739 Z"/>
  </g>
  <g id="bullet-char-template-10007" transform="scale(0.00048828125,-0.00048828125)">
   <path d="M 0,-2 C -7,14 -16,27 -25,37 L 356,567 C 262,823 215,952 215,954 215,979 228,992 255,992 264,992 276,990 289,987 310,991 331,999 354,1012 L 381,999 492,748 772,1049 836,1024 860,1049 C 881,1039 901,1025 922,1006 886,937 835,863 770,784 769,783 710,716 594,584 L 774,223 C 774,196 753,168 711,139 L 727,119 C 717,90 699,76 672,76 641,76 570,178 457,381 L 164,-76 C 142,-110 111,-127 72,-127 30,-127 9,-110 8,-76 1,-67 -2,-52 -2,-32 -2,-23 -1,-13 0,-2 Z"/>
  </g>
  <g id="bullet-char-template-10004" transform="scale(0.00048828125,-0.00048828125)">
   <path d="M 285,-33 C 182,-33 111,30 74,156 52,228 41,333 41,471 41,549 55,616 82,672 116,743 169,778 240,778 293,778 328,747 346,684 L 369,508 C 377,444 397,411 428,410 L 1163,1116 C 1174,1127 1196,1133 1229,1133 1271,1133 1292,1118 1292,1087 L 1292,965 C 1292,929 1282,901 1262,881 L 442,47 C 390,-6 338,-33 285,-33 Z"/>
  </g>
  <g id="bullet-char-template-9679" transform="scale(0.00048828125,-0.00048828125)">
   <path d="M 813,0 C 632,0 489,54 383,161 276,268 223,411 223,592 223,773 276,916 383,1023 489,1130 632,1184 813,1184 992,1184 1136,1130 1245,1023 1353,916 1407,772 1407,592 1407,412 1353,268 1245,161 1136,54 992,0 813,0 Z"/>
  </g>
  <g id="bullet-char-template-8226" transform="scale(0.00048828125,-0.00048828125)">
   <path d="M 346,457 C 273,457 209,483 155,535 101,586 74,649 74,723 74,796 101,859 155,911 209,963 273,989 346,989 419,989 480,963 531,910 582,859 608,796 608,723 608,648 583,586 532,535 482,483 420,457 346,457 Z"/>
  </g>
  <g id="bullet-char-template-8211" transform="scale(0.00048828125,-0.00048828125)">
   <path d="M -4,459 L 1135,459 1135,606 -4,606 -4,459 Z"/>
  </g>
  <g id="bullet-char-template-61548" transform="scale(0.00048828125,-0.00048828125)">
   <path d="M 173,740 C 173,903 231,1043 346,1159 462,1274 601,1332 765,1332 928,1332 1067,1274 1183,1159 1299,1043 1357,903 1357,740 1357,577 1299,437 1183,322 1067,206 928,148 765,148 601,148 462,206 346,322 231,437 173,577 173,740 Z"/>
  </g>
 </defs>
 <defs class="TextEmbeddedBitmaps"/>
 <g>
  <g id="id2" class="Master_Slide">
   <g id="bg-id2" class="Background"/>
   <g id="bo-id2" class="BackgroundObjects"/>
  </g>
 </g>
 <g class="SlideGroup">
  <g>
   <g id="container-id1">
    <g id="id1" class="Slide" clip-path="url(#presentation_clip_path)">
     <g class="Page">
      <g class="Group">
       <g class="com.sun.star.drawing.ClosedBezierShape">
        <g id="id3">
         <rect class="BoundingBox" stroke="none" fill="none" x="12523" y="21216" width="9721" height="14393"/>
         <path fill="rgb(0,0,0)" stroke="none" d="M 12571,35608 C 12539,35045 12523,34256 12523,33239 12523,32339 12534,31544 12555,30852 12576,30160 12632,29536 12722,28981 12812,28426 12947,27906 13127,27421 13520,26397 14151,25501 15021,24735 15890,23968 17020,23370 18409,22940 18695,22369 18968,21939 19228,21650 19488,21361 19777,21216 20095,21216 20222,21216 20403,21233 20636,21269 20869,21304 21108,21355 21352,21421 21596,21488 21805,21568 21980,21662 22155,21756 22243,21861 22243,21978 22243,22096 22192,22258 22092,22465 21991,22672 21864,22887 21710,23110 21556,23333 21389,23531 21209,23702 21082,23828 20938,23924 20779,23990 20620,24057 20445,24105 20254,24137 19141,24293 18210,24473 17462,24676 16715,24880 16108,25116 15641,25386 15174,25656 14814,25968 14559,26324 14305,26680 14119,27085 14002,27538 13918,27851 13843,28230 13780,28676 13716,29122 13658,29599 13605,30107 13552,30615 13504,31130 13462,31650 13419,32169 13382,32660 13350,33122 13308,33669 13268,34148 13231,34558 13194,34969 13159,35319 13127,35608 L 12571,35608 Z"/>
        </g>
       </g>
       <g class="com.sun.star.drawing.ClosedBezierShape">
        <g id="id4">
         <rect class="BoundingBox" stroke="none" fill="none" x="23360" y="20060" width="5124" height="2744"/>
         <path fill="rgb(0,0,0)" stroke="none" d="M 24680,22803 C 24447,22600 24222,22413 24004,22242 23787,22071 23572,21912 23360,21764 L 23360,21639 C 23456,21519 23596,21364 23782,21175 23967,20986 24153,20806 24338,20635 24524,20464 24659,20360 24744,20323 L 24887,20323 C 25152,20462 25375,20591 25555,20711 25736,20831 25874,20956 25969,21085 26160,20882 26372,20672 26605,20455 26838,20238 27003,20106 27098,20060 L 27226,20060 C 27650,20291 27965,20496 28172,20676 28379,20856 28482,21039 28482,21224 28482,21575 28058,22013 27210,22540 L 27067,22540 C 26706,22226 26367,21958 26048,21736 25900,22032 25492,22387 24824,22803 L 24680,22803 Z"/>
        </g>
       </g>
       <g class="com.sun.star.drawing.ClosedBezierShape">
        <g id="id5">
         <rect class="BoundingBox" stroke="none" fill="none" x="19412" y="17482" width="7351" height="4614"/>
         <path fill="rgb(0,0,0)" stroke="none" d="M 19778,22095 C 19534,22095 19412,22017 19412,21860 19412,21795 19481,21643 19619,21402 19757,21162 19940,20881 20168,20557 20396,20234 20650,19913 20931,19595 21212,19276 21496,19006 21782,18784 22249,18415 22745,18105 23270,17856 23795,17607 24322,17482 24853,17482 25128,17482 25335,17521 25473,17600 25611,17678 25738,17759 25855,17842 25971,17925 26120,17967 26300,17967 26449,17967 26563,18022 26642,18133 26722,18244 26762,18369 26762,18507 26762,18784 26661,19008 26459,19179 26258,19350 26025,19435 25759,19435 25494,19435 25295,19394 25163,19311 25030,19227 24911,19147 24805,19068 24699,18990 24540,18950 24328,18950 23723,18950 23201,19045 22761,19234 22321,19424 21928,19687 21583,20024 21239,20361 20913,20761 20605,21222 20361,21592 20192,21830 20096,21936 20001,22042 19895,22095 19778,22095 Z"/>
        </g>
       </g>
       <g class="com.sun.star.drawing.ClosedBezierShape">
        <g id="id6">
         <rect class="BoundingBox" stroke="none" fill="none" x="25307" y="7427" width="6349" height="12026"/>
         <path fill="rgb(0,0,0)" stroke="none" d="M 25768,19452 C 25684,19452 25585,19410 25474,19327 25363,19244 25307,19105 25307,18911 25307,18625 25410,18399 25617,18233 25824,18066 26049,17983 26293,17983 27131,17983 27698,17355 27995,16099 28038,15942 28072,15721 28099,15434 28125,15148 28149,14792 28170,14368 28192,13933 28226,13453 28274,12927 28322,12400 28361,11819 28393,11181 28425,10683 28473,10232 28536,9831 28600,9429 28698,9034 28831,8646 28963,8258 29130,7852 29332,7427 L 29650,7524 C 29533,8060 29440,8792 29371,9720 29303,10648 29268,11772 29268,13093 29268,13509 29281,13906 29308,14284 29334,14663 29403,15000 29515,15296 29626,15591 29796,15824 30024,15995 30252,16166 30567,16252 30970,16252 31426,16252 31654,16515 31654,17041 31654,17392 31572,17669 31408,17872 31243,18076 31050,18221 30827,18309 30604,18397 30392,18440 30191,18440 29798,18440 29480,18373 29236,18240 28992,18106 28807,17944 28679,17755 28552,17565 28457,17388 28393,17221 28266,17591 28096,17944 27884,18281 27672,18618 27396,18898 27057,19119 26718,19341 26288,19452 25768,19452 Z"/>
        </g>
       </g>
       <g class="com.sun.star.drawing.ClosedBezierShape">
        <g id="id7">
         <rect class="BoundingBox" stroke="none" fill="none" x="28191" y="4418" width="8385" height="14036"/>
         <path fill="rgb(0,0,0)" stroke="none" d="M 30180,18453 C 29724,18453 29496,18190 29495,17663 29496,17312 29578,17035 29742,16832 29907,16629 30100,16483 30323,16396 30545,16308 30758,16264 30959,16264 31457,16264 31871,16153 32200,15931 32529,15710 32693,15460 32693,15183 32693,14980 32611,14784 32446,14594 32282,14405 32062,14250 31786,14130 31511,14010 31198,13950 30848,13950 30328,13950 29915,14075 29607,14324 29299,14574 29092,14846 28986,15142 28923,15326 28838,15449 28732,15509 28626,15569 28546,15599 28493,15599 28292,15599 28191,15493 28191,15280 28191,15151 28202,15026 28223,14906 28244,14786 28276,14666 28318,14546 28583,13918 28899,13301 29265,12696 29631,12091 30052,11521 30529,10985 30964,10496 31402,10016 31842,9545 32282,9074 32714,8607 33138,8146 33573,7684 34019,7203 34475,6705 34931,6206 35339,5744 35700,5319 35837,5162 35959,5010 36065,4862 36172,4715 36283,4567 36400,4419 L 36543,4433 C 36553,4470 36561,4504 36567,4537 36572,4569 36575,4604 36575,4641 36575,4844 36537,5061 36463,5292 36389,5523 36325,5675 36272,5749 36134,5989 35898,6303 35564,6691 35230,7079 34833,7522 34371,8021 33910,8520 33411,9051 32876,9614 32340,10177 31797,10759 31245,11360 L 30354,12315 30386,12343 C 30567,12251 30747,12186 30927,12149 31107,12112 31293,12094 31484,12094 31951,12094 32348,12186 32677,12371 33006,12556 33255,12803 33425,13112 33594,13422 33679,13766 33679,14144 33679,14643 33597,15146 33433,15654 33268,16162 33030,16626 32717,17047 32404,17467 32035,17806 31611,18065 31187,18324 30710,18453 30180,18453 Z"/>
        </g>
       </g>
       <g class="com.sun.star.drawing.ClosedBezierShape">
        <g id="id8">
         <rect class="BoundingBox" stroke="none" fill="none" x="5620" y="22256" width="3512" height="2481"/>
         <path fill="rgb(0,0,0)" stroke="none" d="M 7295,24736 C 6730,24339 6172,23997 5620,23711 L 5620,23586 C 5741,23466 5919,23311 6155,23122 6390,22932 6626,22752 6861,22582 7097,22411 7268,22302 7376,22256 L 7557,22256 C 8176,22524 8593,22748 8808,22928 9024,23108 9131,23276 9131,23434 9131,23766 8573,24200 7456,24736 L 7295,24736 Z"/>
        </g>
       </g>
       <g class="com.sun.star.drawing.ClosedBezierShape">
        <g id="id9">
         <rect class="BoundingBox" stroke="none" fill="none" x="2199" y="24986" width="6364" height="6346"/>
         <path fill="rgb(0,0,0)" stroke="none" d="M 2263,31331 L 2199,31012 C 2538,30855 2918,30640 3336,30368 3755,30096 4174,29805 4593,29495 5012,29186 5391,28890 5731,28609 6070,28327 6324,28098 6494,27923 6664,27747 6839,27505 7019,27196 7199,26886 7382,26540 7568,26157 7754,25773 7926,25383 8085,24986 L 8562,25055 C 8159,26505 7711,27683 7218,28588 6725,29493 6245,30107 5778,30430 5492,30560 5055,30698 4466,30846 3877,30994 3143,31155 2263,31331 Z"/>
        </g>
       </g>
       <g class="com.sun.star.drawing.ClosedBezierShape">
        <g id="id10">
         <rect class="BoundingBox" stroke="none" fill="none" x="5908" y="26635" width="6560" height="7163"/>
         <path fill="rgb(0,0,0)" stroke="none" d="M 5989,33797 L 5908,33492 C 6917,33077 7839,32645 8673,32197 9507,31749 10169,31336 10660,30957 11152,30579 11397,30283 11397,30071 11397,30006 11384,29969 11357,29960 10913,30172 10462,30278 10005,30278 9534,30278 9123,30175 8774,29967 8424,29759 8249,29512 8249,29226 8249,28930 8383,28588 8653,28200 L 9319,27286 C 9641,26852 10099,26635 10691,26635 11875,26635 12467,27406 12467,28948 12467,29290 12409,29671 12295,30091 12181,30512 11986,30936 11710,31366 11434,31795 11061,32199 10590,32578 10388,32670 10038,32790 9540,32938 9043,33086 8478,33238 7845,33395 7213,33552 6594,33686 5989,33797 Z"/>
        </g>
       </g>
       <g class="com.sun.star.drawing.ClosedBezierShape">
        <g id="id11">
         <rect class="BoundingBox" stroke="none" fill="none" x="10394" y="25081" width="14067" height="10211"/>
         <path fill="rgb(0,0,0)" stroke="none" d="M 10878,35291 L 10394,34931 C 11713,34136 12920,33213 14016,32160 15113,31107 16226,29953 17356,28697 17962,28032 18577,27427 19203,26882 19828,26337 20504,25901 21231,25573 21957,25245 22765,25081 23653,25081 23881,25081 24073,25116 24228,25185 24382,25254 24460,25358 24460,25497 24460,25737 24392,25979 24258,26224 24123,26469 23905,26672 23602,26833 23299,26995 22892,27076 22381,27076 21803,27076 21264,27173 20767,27367 20269,27561 19744,27886 19193,28343 18641,28801 17982,29422 17215,30207 16677,30770 16196,31248 15772,31641 15348,32033 15002,32345 14733,32576 14141,33084 13522,33571 12876,34037 12231,34503 11565,34921 10878,35291 Z"/>
        </g>
       </g>
       <g class="com.sun.star.drawing.ClosedBezierShape">
        <g id="id12">
         <rect class="BoundingBox" stroke="none" fill="none" x="21707" y="28266" width="2868" height="4226"/>
         <path fill="rgb(0,0,0)" stroke="none" d="M 22879,32491 C 22475,32491 22179,32378 21991,32152 21802,31926 21708,31665 21708,31369 21708,31111 21772,30799 21900,30434 22028,30069 22189,29693 22384,29305 22579,28917 22784,28571 23000,28266 L 23605,28405 C 23511,28552 23410,28744 23302,28979 23195,29215 23104,29462 23030,29721 22956,29979 22919,30224 22919,30455 22919,30834 23006,31041 23181,31078 L 23605,30580 C 23659,30543 23740,30524 23847,30524 24331,30524 24574,30737 24574,31161 24574,31318 24516,31501 24402,31709 24288,31916 24106,32099 23857,32256 23608,32413 23282,32491 22879,32491 Z"/>
        </g>
       </g>
       <g class="com.sun.star.drawing.ClosedBezierShape">
        <g id="id13">
         <rect class="BoundingBox" stroke="none" fill="none" x="21574" y="25093" width="4441" height="4337"/>
         <path fill="rgb(0,0,0)" stroke="none" d="M 24480,29429 L 23895,29374 C 23962,29198 24012,29039 24046,28896 24080,28753 24097,28626 24097,28515 24097,28155 24006,27871 23824,27663 23643,27455 23421,27307 23158,27219 22896,27132 22637,27088 22381,27088 22180,27088 21995,27056 21826,26991 21658,26926 21574,26820 21574,26672 21574,26220 21759,25843 22129,25543 22499,25243 23007,25093 23653,25093 24312,25093 24826,25227 25196,25495 25566,25763 25751,26095 25751,26492 25751,26640 25731,26779 25691,26908 25906,26917 26014,26986 26014,27116 26014,27153 26007,27187 25993,27219 25980,27252 25960,27282 25933,27310 25381,27928 24897,28635 24480,29429 Z"/>
        </g>
       </g>
       <g class="com.sun.star.drawing.ClosedBezierShape">
        <g id="id14">
         <rect class="BoundingBox" stroke="none" fill="none" x="30884" y="19329" width="5124" height="4725"/>
         <path fill="rgb(0,0,0)" stroke="none" d="M 33302,21643 C 33217,21559 33082,21444 32896,21296 32711,21148 32536,21012 32371,20888 32207,20763 32104,20687 32061,20659 L 32061,20548 C 32220,20354 32393,20169 32578,19994 32764,19819 32936,19668 33095,19544 33254,19419 33355,19347 33397,19329 L 33509,19329 C 33933,19588 34235,19793 34416,19946 34596,20098 34686,20243 34686,20382 34686,20631 34272,21051 33445,21643 L 33302,21643 Z M 32204,24053 C 31971,23850 31746,23665 31528,23499 31311,23333 31096,23176 30884,23028 L 30884,22903 C 30990,22774 31136,22615 31322,22425 31507,22236 31690,22058 31870,21892 32051,21726 32183,21619 32268,21573 L 32411,21573 C 32687,21721 32912,21857 33087,21982 33262,22107 33398,22229 33493,22349 33673,22155 33880,21950 34113,21733 34347,21516 34516,21379 34622,21324 L 34750,21324 C 35174,21555 35489,21760 35696,21940 35903,22120 36006,22303 36006,22488 36006,22839 35582,23277 34734,23804 L 34591,23804 C 34410,23647 34235,23501 34065,23367 33896,23233 33737,23111 33588,23000 33419,23296 33005,23647 32347,24053 L 32204,24053 Z"/>
        </g>
       </g>
       <g class="com.sun.star.drawing.ClosedBezierShape">
        <g id="id15">
         <rect class="BoundingBox" stroke="none" fill="none" x="24731" y="23115" width="12718" height="4850"/>
         <path fill="rgb(0,0,0)" stroke="none" d="M 25056,27964 C 24839,27964 24731,27927 24731,27853 24731,27807 24816,27677 24986,27465 25157,27253 25381,27005 25659,26724 25938,26442 26247,26167 26587,25900 26928,25632 27276,25419 27632,25262 27941,25124 28254,25015 28571,24937 28889,24858 29210,24819 29534,24819 30030,24819 30432,24893 30741,25041 30989,25151 31163,25223 31263,25255 31364,25288 31507,25304 31693,25304 32141,25304 32513,25225 32806,25068 33100,24911 33449,24620 33851,24196 L 34083,24154 C 34408,24265 34763,24320 35150,24320 35831,24320 36372,23919 36775,23115 L 37448,23198 C 36767,24962 35622,25844 34013,25844 33750,25844 33479,25816 33201,25761 32876,26084 32528,26334 32157,26509 31785,26685 31383,26772 30950,26772 30440,26772 30030,26689 29720,26523 29426,26366 29125,26287 28815,26287 28289,26287 27779,26382 27284,26571 26789,26761 26363,27031 26007,27382 25744,27650 25555,27814 25439,27874 25323,27934 25195,27964 25056,27964 Z"/>
        </g>
       </g>
       <g class="com.sun.star.drawing.ClosedBezierShape">
        <g id="id16">
         <rect class="BoundingBox" stroke="none" fill="none" x="13767" y="21121" width="3535" height="2804"/>
         <path fill="rgb(0,0,0)" stroke="none" d="M 14268,23924 C 13934,23924 13767,23781 13767,23496 13767,23323 13810,23154 13896,22990 13982,22825 14087,22687 14210,22574 L 14454,22626 C 14454,22730 14482,22810 14540,22866 14597,22923 14659,22951 14725,22951 14821,22951 14911,22918 14997,22853 15083,22789 15188,22674 15312,22509 L 15798,21848 C 15999,21580 16175,21391 16328,21283 16480,21175 16642,21121 16814,21121 16929,21121 17038,21149 17143,21205 17248,21262 17301,21376 17301,21549 17301,21713 17258,21878 17172,22042 17086,22207 16981,22349 16857,22470 L 16628,22418 C 16628,22297 16597,22211 16535,22159 16473,22107 16409,22081 16342,22081 16247,22081 16158,22111 16077,22172 15996,22232 15894,22345 15770,22509 L 15283,23184 C 14931,23677 14592,23924 14268,23924 Z"/>
        </g>
       </g>
       <g class="com.sun.star.drawing.ClosedBezierShape">
        <g id="id17">
         <rect class="BoundingBox" stroke="none" fill="none" x="34468" y="17301" width="3362" height="1798"/>
         <path fill="rgb(0,0,0)" stroke="none" d="M 35823,19098 C 35606,19098 35394,19066 35186,19000 34978,18934 34807,18821 34671,18660 34536,18499 34468,18280 34468,18002 34468,17885 34479,17776 34502,17674 34525,17571 34554,17465 34590,17356 L 34888,17378 C 34879,17407 34872,17433 34868,17454 34863,17476 34861,17498 34861,17520 L 34861,17663 C 34861,17889 34938,18066 35091,18194 35245,18322 35507,18386 35877,18386 36103,18386 36326,18355 36548,18293 36769,18231 36965,18121 37137,17964 37309,17807 37435,17586 37516,17301 L 37828,17301 C 37819,17593 37729,17876 37557,18150 37385,18424 37153,18651 36859,18830 36566,19009 36220,19098 35823,19098 Z"/>
        </g>
       </g>
       <g class="com.sun.star.drawing.ClosedBezierShape">
        <g id="id18">
         <rect class="BoundingBox" stroke="none" fill="none" x="30277" y="6425" width="2744" height="1752"/>
         <path fill="rgb(0,0,0)" stroke="none" d="M 30765,8176 C 30440,8176 30277,8034 30277,7751 30277,7583 30317,7444 30396,7336 L 30567,7316 30567,7367 C 30594,7474 30635,7550 30692,7594 30750,7638 30827,7660 30923,7660 31099,7660 31240,7609 31345,7508 31451,7407 31547,7228 31635,6972 L 31846,6941 C 31925,7063 32066,7124 32268,7124 32435,7124 32554,7068 32624,6957 32695,6845 32747,6678 32783,6455 L 33020,6425 33020,6536 C 33020,6698 32989,6864 32928,7033 32866,7201 32761,7345 32611,7463 32462,7581 32255,7640 31991,7640 31860,7640 31750,7613 31662,7559 31433,7970 31134,8176 30765,8176 Z"/>
        </g>
       </g>
       <g class="com.sun.star.drawing.ClosedBezierShape">
        <g id="id19">
         <rect class="BoundingBox" stroke="none" fill="none" x="23565" y="22447" width="3017" height="2220"/>
         <path fill="rgb(0,0,0)" stroke="none" d="M 23648,24666 L 23565,24606 C 23597,24428 23676,24268 23802,24127 23929,23985 24068,23864 24218,23763 24369,23662 24491,23587 24586,23538 L 26213,22617 C 26348,22536 26435,22479 26474,22447 L 26581,22508 C 26518,22677 26439,22827 26344,22956 26249,23086 26110,23203 25928,23308 L 24277,24230 C 24087,24335 23947,24420 23856,24484 23765,24549 23696,24610 23648,24666 Z"/>
        </g>
       </g>
       <g class="com.sun.star.drawing.ClosedBezierShape">
        <g id="id20">
         <rect class="BoundingBox" stroke="none" fill="none" x="9449" y="23923" width="3602" height="2242"/>
         <path fill="rgb(0,0,0)" stroke="none" d="M 9581,26164 L 9449,26138 C 9458,25959 9511,25771 9607,25575 9704,25379 9871,25151 10108,24890 10346,24630 10680,24316 11111,23950 L 11269,23924 C 11577,24112 11858,24304 12113,24500 12333,24671 12507,24818 12634,24942 12762,25065 12856,25195 12918,25332 12979,25468 13023,25639 13050,25844 L 12931,25895 C 12377,25494 11806,25114 11216,24756 L 10781,25102 C 10535,25289 10311,25473 10108,25652 9906,25831 9730,26002 9581,26164 Z"/>
        </g>
       </g>
       <g class="com.sun.star.drawing.ClosedBezierShape">
        <g id="id21">
         <rect class="BoundingBox" stroke="none" fill="none" x="9059" y="21119" width="1439" height="2772"/>
         <path fill="rgb(0,0,0)" stroke="none" d="M 9568,23890 L 9422,23783 C 9568,23541 9667,23358 9721,23234 9775,23111 9802,22991 9802,22876 9802,22727 9740,22590 9616,22463 9492,22337 9307,22183 9059,22001 L 9059,21935 C 9140,21826 9231,21710 9333,21589 9436,21468 9530,21362 9616,21272 9702,21181 9759,21130 9785,21119 L 9858,21119 C 10283,21383 10496,21705 10496,22084 10496,22271 10433,22517 10306,22822 10180,23127 9933,23483 9568,23890 Z"/>
        </g>
       </g>
       <g class="com.sun.star.drawing.ClosedBezierShape">
        <g id="id22">
         <rect class="BoundingBox" stroke="none" fill="none" x="4115" y="18209" width="5860" height="2881"/>
         <path fill="rgb(0,0,0)" stroke="none" d="M 4453,21088 L 4115,20974 C 4577,20116 5106,19441 5702,18948 6299,18456 6974,18209 7728,18209 7987,18209 8277,18231 8598,18273 8919,18316 9192,18337 9417,18337 9788,18337 9974,18473 9974,18744 9974,19025 9884,19288 9704,19534 9524,19780 9284,19978 8986,20126 8688,20275 8359,20349 7998,20349 7751,20349 7483,20313 7196,20241 6909,20169 6636,20133 6378,20133 5961,20133 5615,20213 5339,20375 5063,20536 4768,20774 4453,21088 Z"/>
        </g>
       </g>
       <g class="com.sun.star.drawing.ClosedBezierShape">
        <g id="id23">
         <rect class="BoundingBox" stroke="none" fill="none" x="11888" y="18972" width="2431" height="2282"/>
         <path fill="rgb(0,0,0)" stroke="none" d="M 13047,21253 C 12852,21066 12657,20894 12461,20737 12266,20579 12075,20433 11889,20297 L 11889,20195 C 11973,20085 12096,19943 12259,19769 12422,19594 12584,19429 12747,19272 12910,19115 13029,19015 13103,18972 L 13229,18972 C 13591,19185 13864,19374 14045,19539 14226,19705 14317,19873 14317,20042 14317,20348 13931,20751 13159,21253 L 13047,21253 Z"/>
        </g>
       </g>
       <g class="com.sun.star.drawing.ClosedBezierShape">
        <g id="id24">
         <rect class="BoundingBox" stroke="none" fill="none" x="7690" y="13954" width="7622" height="6421"/>
         <path fill="rgb(0,0,0)" stroke="none" d="M 8333,20374 C 7905,20374 7691,20234 7691,19954 7691,19665 7784,19399 7970,19157 8156,18915 8389,18722 8668,18578 8947,18434 9226,18361 9505,18361 9942,18361 10317,18338 10628,18291 10940,18245 11238,18143 11522,17986 11805,17829 12124,17584 12478,17253 12636,17109 12810,16943 13001,16756 13192,16570 13454,16306 13789,15967 13696,15941 13522,15884 13266,15795 13010,15706 12557,15551 11905,15330 11710,15262 11531,15211 11368,15177 11205,15143 11031,15126 10845,15126 10640,15126 10456,15158 10293,15222 10131,15285 9993,15406 9882,15585 L 9519,15483 C 10077,14464 10794,13954 11668,13954 11854,13954 12087,13988 12366,14056 12645,14124 13050,14268 13580,14489 13906,14625 14208,14752 14487,14871 14766,14990 15036,15071 15297,15113 L 15311,15266 C 15236,15342 15125,15453 14976,15597 14827,15742 14666,15899 14494,16069 14322,16238 14166,16395 14027,16540 13887,16684 13785,16790 13720,16858 13254,17342 12803,17820 12366,18291 11929,18763 11498,19170 11075,19514 10652,19858 10226,20085 9798,20196 9565,20255 9326,20300 9079,20329 8833,20359 8584,20374 8333,20374 Z"/>
        </g>
       </g>
       <g class="com.sun.star.drawing.ClosedBezierShape">
        <g id="id25">
         <rect class="BoundingBox" stroke="none" fill="none" x="15730" y="7315" width="1844" height="12068"/>
         <path fill="rgb(0,0,0)" stroke="none" d="M 16037,19381 L 15730,19303 C 15777,19062 15823,18679 15870,18156 15916,17632 15954,16993 15982,16239 L 16107,12484 C 16126,12013 16147,11599 16170,11243 16193,10887 16242,10534 16316,10183 16391,9832 16505,9431 16658,8981 16812,8531 17019,7975 17279,7316 L 17572,7441 C 17498,7651 17435,8020 17384,8549 17333,9078 17284,9766 17238,10615 L 17000,15045 C 16963,15715 16868,16412 16714,17135 16561,17857 16335,18606 16037,19381 Z"/>
        </g>
       </g>
       <g class="com.sun.star.drawing.ClosedBezierShape">
        <g id="id26">
         <rect class="BoundingBox" stroke="none" fill="none" x="16098" y="13909" width="4537" height="6587"/>
         <path fill="rgb(0,0,0)" stroke="none" d="M 16154,20495 L 16098,20215 C 16359,20070 16654,19894 16984,19686 17315,19478 17645,19259 17975,19030 18306,18801 18606,18576 18875,18355 19145,18134 19355,17935 19503,17756 19606,17629 19690,17510 19755,17400 19820,17289 19866,17192 19894,17107 19727,17124 19541,17143 19336,17164 19131,17185 18978,17196 18875,17196 18522,17187 18240,17098 18031,16928 17822,16758 17717,16546 17717,16291 17717,16147 17740,15996 17787,15839 17833,15682 17903,15519 17996,15349 L 18457,14508 C 18680,14109 18996,13909 19406,13909 20224,13909 20634,14619 20634,16037 20634,16351 20594,16701 20515,17088 20436,17474 20301,17865 20111,18259 19920,18654 19662,19026 19336,19374 19178,19476 18915,19597 18547,19737 18180,19877 17780,20015 17347,20151 16915,20287 16517,20401 16154,20495 Z"/>
        </g>
       </g>
       <g class="com.sun.star.drawing.ClosedBezierShape">
        <g id="id27">
         <rect class="BoundingBox" stroke="none" fill="none" x="21719" y="6788" width="2430" height="2282"/>
         <path fill="rgb(0,0,0)" stroke="none" d="M 22878,9069 C 22487,8703 22101,8389 21719,8126 L 21719,8011 C 21803,7901 21927,7759 22089,7585 22252,7411 22415,7245 22578,7088 22741,6931 22859,6831 22934,6789 L 23059,6789 C 23487,7035 23776,7241 23924,7406 24073,7572 24148,7727 24148,7871 24148,8177 23762,8576 22989,9069 L 22878,9069 Z"/>
        </g>
       </g>
       <g class="com.sun.star.drawing.ClosedBezierShape">
        <g id="id28">
         <rect class="BoundingBox" stroke="none" fill="none" x="19290" y="11376" width="6506" height="5644"/>
         <path fill="rgb(0,0,0)" stroke="none" d="M 19626,17019 C 19561,17019 19489,16987 19410,16923 19330,16859 19291,16760 19291,16624 19291,16395 19370,16223 19528,16108 19686,15993 19840,15936 19989,15936 20621,15936 21263,15715 21915,15274 22566,14832 23347,14200 24259,13376 24147,13351 23996,13310 23806,13255 23615,13200 23385,13121 23115,13019 22752,12875 22459,12767 22235,12695 22012,12622 21863,12582 21789,12574 21640,12548 21487,12535 21328,12535 20854,12535 20533,12697 20365,13019 L 20003,12905 C 20272,12438 20572,12066 20903,11790 21233,11514 21649,11376 22152,11376 22422,11376 22773,11448 23205,11593 23638,11737 24054,11898 24454,12077 25068,12349 25506,12497 25766,12523 L 25794,12688 C 25590,12850 25248,13142 24768,13567 24289,13992 23687,14560 22961,15274 22403,15817 21875,16244 21377,16554 20879,16864 20296,17019 19626,17019 Z"/>
        </g>
       </g>
       <g class="com.sun.star.drawing.ClosedBezierShape">
        <g id="id29">
         <rect class="BoundingBox" stroke="none" fill="none" x="17704" y="11639" width="2194" height="1238"/>
         <path fill="rgb(0,0,0)" stroke="none" d="M 18094,12875 C 17834,12875 17704,12775 17704,12575 17704,12456 17736,12358 17799,12282 L 17936,12268 17936,12304 C 17957,12379 17990,12433 18036,12464 18082,12495 18144,12511 18220,12511 18361,12511 18474,12475 18558,12403 18643,12332 18719,12206 18790,12025 L 18958,12003 C 19022,12089 19134,12132 19296,12132 19429,12132 19524,12093 19580,12015 19637,11935 19679,11818 19708,11660 L 19897,11639 19897,11717 C 19897,11832 19872,11949 19823,12068 19774,12187 19690,12288 19570,12372 19451,12455 19285,12497 19074,12497 18970,12497 18882,12478 18811,12439 18628,12730 18389,12875 18094,12875 Z"/>
        </g>
       </g>
       <g class="com.sun.star.drawing.ClosedBezierShape">
        <g id="id30">
         <rect class="BoundingBox" stroke="none" fill="none" x="18160" y="4508" width="742" height="5884"/>
         <path fill="rgb(0,0,0)" stroke="none" d="M 18422,10391 L 18347,10164 C 18422,9650 18474,9262 18501,8999 18529,8737 18543,8483 18543,8239 18543,7922 18511,7631 18447,7362 18383,7094 18288,6768 18160,6381 L 18160,6241 C 18202,6010 18249,5764 18301,5507 18354,5250 18403,5025 18447,4834 18492,4641 18521,4532 18534,4509 L 18572,4509 C 18791,5069 18901,5753 18901,6557 18901,6954 18869,7477 18803,8124 18738,8771 18611,9527 18422,10391 Z"/>
        </g>
       </g>
       <g class="com.sun.star.drawing.ClosedBezierShape">
        <g id="id31">
         <rect class="BoundingBox" stroke="none" fill="none" x="8465" y="15548" width="3017" height="2220"/>
         <path fill="rgb(0,0,0)" stroke="none" d="M 8548,17767 L 8465,17707 C 8497,17529 8576,17369 8702,17228 8829,17086 8968,16965 9118,16864 9269,16763 9391,16688 9486,16639 L 11113,15718 C 11248,15637 11335,15580 11374,15548 L 11481,15609 C 11418,15778 11339,15928 11244,16057 11149,16187 11010,16304 10828,16409 L 9177,17331 C 8987,17436 8847,17521 8756,17585 8665,17650 8596,17711 8548,17767 Z"/>
        </g>
       </g>
      </g>
     </g>
    </g>
   </g>
  </g>
 </g>
</svg>